<?xml version="1.0" encoding="UTF-8" standalone="no"?>
<!-- Created with Inkscape (http://www.inkscape.org/) -->

<svg
   xmlns:osb="http://www.openswatchbook.org/uri/2009/osb"
   xmlns:dc="http://purl.org/dc/elements/1.1/"
   xmlns:cc="http://creativecommons.org/ns#"
   xmlns:rdf="http://www.w3.org/1999/02/22-rdf-syntax-ns#"
   xmlns:svg="http://www.w3.org/2000/svg"
   xmlns="http://www.w3.org/2000/svg"
   xmlns:xlink="http://www.w3.org/1999/xlink"
   xmlns:sodipodi="http://sodipodi.sourceforge.net/DTD/sodipodi-0.dtd"
   xmlns:inkscape="http://www.inkscape.org/namespaces/inkscape"
   width="210mm"
   height="297mm"
   viewBox="0 0 210 297"
   version="1.1"
   id="svg8"
   inkscape:version="0.92.3 (2405546, 2018-03-11)"
   sodipodi:docname="Kepapingwin.svg">
  <defs
     id="defs2">
    <linearGradient
       inkscape:collect="always"
       id="linearGradient198">
      <stop
         style="stop-color:#ffff00;stop-opacity:1;"
         offset="0"
         id="stop194" />
      <stop
         style="stop-color:#ffff00;stop-opacity:0;"
         offset="1"
         id="stop196" />
    </linearGradient>
    <linearGradient
       inkscape:collect="always"
       id="linearGradient6457">
      <stop
         style="stop-color:#ffff00;stop-opacity:1;"
         offset="0"
         id="stop6453" />
      <stop
         id="stop6461"
         offset="0.54841125"
         style="stop-color:#ffff00;stop-opacity:0.45098039;" />
      <stop
         style="stop-color:#ffff00;stop-opacity:0;"
         offset="1"
         id="stop6455" />
    </linearGradient>
    <inkscape:perspective
       sodipodi:type="inkscape:persp3d"
       inkscape:vp_x="0 : 148.5 : 1"
       inkscape:vp_y="0 : 1000 : 0"
       inkscape:vp_z="210 : 148.5 : 1"
       inkscape:persp3d-origin="105 : 99 : 1"
       id="perspective6259" />
    <linearGradient
       inkscape:collect="always"
       id="linearGradient6236">
      <stop
         style="stop-color:#0000ff;stop-opacity:1;"
         offset="0"
         id="stop6232" />
      <stop
         style="stop-color:#0000ff;stop-opacity:0;"
         offset="1"
         id="stop6234" />
    </linearGradient>
    <linearGradient
       inkscape:collect="always"
       id="linearGradient6228">
      <stop
         style="stop-color:#0000ff;stop-opacity:1;"
         offset="0"
         id="stop6224" />
      <stop
         style="stop-color:#0000ff;stop-opacity:0;"
         offset="1"
         id="stop6226" />
    </linearGradient>
    <linearGradient
       inkscape:collect="always"
       id="linearGradient6216">
      <stop
         style="stop-color:#ffffff;stop-opacity:1;"
         offset="0"
         id="stop6212" />
      <stop
         style="stop-color:#e6e6e6;stop-opacity:0"
         offset="1"
         id="stop6214" />
    </linearGradient>
    <linearGradient
       inkscape:collect="always"
       id="linearGradient6210">
      <stop
         style="stop-color:#ffffff;stop-opacity:1"
         offset="0"
         id="stop6206" />
      <stop
         style="stop-color:#ffffff;stop-opacity:0;"
         offset="1"
         id="stop6208" />
    </linearGradient>
    <linearGradient
       id="linearGradient6188"
       inkscape:collect="always">
      <stop
         id="stop6184"
         offset="0"
         style="stop-color:#999999;stop-opacity:1;" />
      <stop
         id="stop6186"
         offset="1"
         style="stop-color:#333333;stop-opacity:1" />
    </linearGradient>
    <linearGradient
       inkscape:collect="always"
       id="linearGradient6140">
      <stop
         style="stop-color:#000000;stop-opacity:1;"
         offset="0"
         id="stop6136" />
      <stop
         style="stop-color:#000000;stop-opacity:0;"
         offset="1"
         id="stop6138" />
    </linearGradient>
    <linearGradient
       id="linearGradient5999"
       osb:paint="solid">
      <stop
         style="stop-color:#4e4e4e;stop-opacity:1;"
         offset="0"
         id="stop5997" />
    </linearGradient>
    <linearGradient
       inkscape:collect="always"
       xlink:href="#linearGradient6140"
       id="linearGradient6142"
       x1="111.10898"
       y1="32.087891"
       x2="109.99107"
       y2="157.90477"
       gradientUnits="userSpaceOnUse" />
    <linearGradient
       inkscape:collect="always"
       xlink:href="#linearGradient6188"
       id="linearGradient6182"
       x1="108.80781"
       y1="47.031799"
       x2="108.47916"
       y2="106.12202"
       gradientUnits="userSpaceOnUse"
       gradientTransform="matrix(1.0765424,0,0,1.593402,-7.9393554,-51.755913)" />
    <linearGradient
       inkscape:collect="always"
       xlink:href="#linearGradient6210"
       id="linearGradient6204"
       x1="135.72087"
       y1="80.666718"
       x2="-6.7382236"
       y2="-24.311346"
       gradientUnits="userSpaceOnUse"
       gradientTransform="translate(-0.44431437,-3.8507228)" />
    <linearGradient
       inkscape:collect="always"
       xlink:href="#linearGradient6216"
       id="linearGradient6218"
       x1="84.724442"
       y1="79.442604"
       x2="226.65208"
       y2="-35.711208"
       gradientUnits="userSpaceOnUse"
       gradientTransform="matrix(0.99966144,0,0,1.1730012,-0.11631722,-15.98576)" />
    <linearGradient
       inkscape:collect="always"
       xlink:href="#linearGradient6228"
       id="linearGradient6230"
       x1="36.549107"
       y1="154.21126"
       x2="30.268665"
       y2="149.89503"
       gradientUnits="userSpaceOnUse"
       gradientTransform="translate(91.211571,-83.286735)" />
    <linearGradient
       inkscape:collect="always"
       xlink:href="#linearGradient6236"
       id="linearGradient6238"
       x1="21.114292"
       y1="143.78775"
       x2="26.526501"
       y2="138.2419"
       gradientUnits="userSpaceOnUse"
       gradientTransform="matrix(1.4656849,0,0,1.2513974,64.319881,-107.8721)" />
    <linearGradient
       inkscape:collect="always"
       xlink:href="#linearGradient6457"
       id="linearGradient6459"
       x1="45.948353"
       y1="189.34178"
       x2="11.441433"
       y2="218.24612"
       gradientUnits="userSpaceOnUse"
       gradientTransform="translate(48.592818,-49.011722)" />
    <linearGradient
       inkscape:collect="always"
       xlink:href="#linearGradient6457"
       id="linearGradient6459-0"
       x1="45.948353"
       y1="189.34178"
       x2="10.603626"
       y2="216.57051"
       gradientUnits="userSpaceOnUse"
       gradientTransform="matrix(1,0,0,1.0398864,91.443686,-56.273419)" />
    <linearGradient
       inkscape:collect="always"
       xlink:href="#linearGradient198"
       id="linearGradient200"
       x1="30.159447"
       y1="109.09262"
       x2="-6.1616411"
       y2="142.04723"
       gradientUnits="userSpaceOnUse" />
  </defs>
  <sodipodi:namedview
     id="base"
     pagecolor="#ffffff"
     bordercolor="#666666"
     borderopacity="1.0"
     inkscape:pageopacity="0.0"
     inkscape:pageshadow="2"
     inkscape:zoom="0.63160912"
     inkscape:cx="277.08427"
     inkscape:cy="540.83854"
     inkscape:document-units="mm"
     inkscape:current-layer="layer1"
     showgrid="false"
     inkscape:snap-bbox="true"
     inkscape:window-width="1920"
     inkscape:window-height="1017"
     inkscape:window-x="-8"
     inkscape:window-y="-8"
     inkscape:window-maximized="1" />
  <metadata
     id="metadata5">
    <rdf:RDF>
      <cc:Work
         rdf:about="">
        <dc:format>image/svg+xml</dc:format>
        <dc:type
           rdf:resource="http://purl.org/dc/dcmitype/StillImage" />
        <dc:title></dc:title>
      </cc:Work>
    </rdf:RDF>
  </metadata>
  <g
     inkscape:label="Layer 1"
     inkscape:groupmode="layer"
     id="layer1"
     style="display:inline">
    <path
       style="fill:#666666;stroke:#000000;stroke-width:0.26458332px;stroke-linecap:butt;stroke-linejoin:miter;stroke-opacity:1"
       d="m 64.615879,78.541769 c -1.402551,7.020322 -2.232711,13.610143 -0.837807,20.421548 -10.274025,-4.4587 -23.826504,-13.264076 -26.705104,-20.735726 7.503911,0.26092 17.34355,4.905068 27.542911,0.314178 z"
       id="path210"
       inkscape:connector-curvature="0"
       sodipodi:nodetypes="cccc" />
    <path
       style="fill:#666666;stroke:#000000;stroke-width:0.24174657px;stroke-linecap:butt;stroke-linejoin:miter;stroke-opacity:1"
       d="m 154.54272,80.786613 c 3.97053,-2.748282 14.23177,-8.379506 28.15233,-4.117445 -9.47641,4.910429 -13.18726,18.123358 -27.37151,20.697613 -0.75048,-5.293602 0.40914,-11.198383 -0.78082,-16.580168 z"
       id="path208"
       inkscape:connector-curvature="0"
       sodipodi:nodetypes="cccc" />
    <path
       style="opacity:1;fill:url(#linearGradient6182);fill-opacity:1;stroke:#dedede;stroke-width:0.40399739;stroke-linejoin:round;stroke-miterlimit:4;stroke-dasharray:none;stroke-opacity:1"
       id="path6146"
       sodipodi:type="arc"
       sodipodi:cx="109.24998"
       sodipodi:cy="68.926308"
       sodipodi:rx="32.959503"
       sodipodi:ry="35.904713"
       sodipodi:start="3.5530366"
       sodipodi:end="3.5508026"
       d="M 79.041132,54.566822 A 32.959503,35.904713 0 0 1 122.4147,36.010033 32.959503,35.904713 0 0 1 139.47353,83.249026 32.959503,35.904713 0 0 1 96.119011,101.85858 32.959503,35.904713 0 0 1 79.01176,54.640374 l 30.23822,14.285934 z" />
    <path
       style="fill:#dedede;fill-opacity:1;stroke:#dedede;stroke-width:0.26499999;stroke-miterlimit:4;stroke-dasharray:none;stroke-opacity:1"
       d="m 147.77554,123.89469 a 54.806545,75.595236 0 0 0 -2.75642,-3.61994 54.806545,75.595236 0 0 0 -4.32531,-4.63847 54.806545,75.595236 0 0 0 -4.639,-4.01939 54.806545,75.595236 0 0 0 -4.90668,-3.36052 54.806545,75.595236 0 0 0 -3.58014,-1.9482 54.806545,75.595236 0 0 0 -5.24826,-2.16576 54.806545,75.595236 0 0 0 -5.37951,-1.43144 54.806545,75.595236 0 0 0 -5.45549,-0.6842 54.806545,75.595236 0 0 0 -5.47821,0.0708 54.806545,75.595236 0 0 0 -5.44567,0.82424 54.806545,75.595236 0 0 0 -5.358841,1.57045 54.806545,75.595236 0 0 0 -5.218287,2.30063 54.806545,75.595236 0 0 0 -5.025533,3.00757 54.806545,75.595236 0 0 0 -4.783172,3.68453 54.806545,75.595236 0 0 0 -4.492231,4.3248 54.806545,75.595236 0 0 0 -4.156853,4.92167 54.806545,75.595236 0 0 0 -0.802534,1.16117 46.113101,59.34226 0 0 0 20.162594,21.91752 46.113101,59.34226 0 0 0 56.889547,-21.91546 z"
       id="path6120"
       inkscape:connector-curvature="0" />
    <path
       style="fill:url(#linearGradient6142);fill-opacity:1;stroke:#dedede;stroke-width:0.26499999;stroke-miterlimit:4;stroke-dasharray:none;stroke-opacity:1"
       d="M 111.10898,32.087891 C 92.105521,31.093353 74.577051,45.215167 66.970588,67.647993 v 0 0 c -6.162543,18.332416 -4.786346,39.546017 3.730522,56.244627 0.264526,-0.39096 0.532053,-0.77804 0.802534,-1.16117 1.32527,-1.73511 2.71262,-3.37771 4.156853,-4.92166 1.444206,-1.54399 2.943489,-2.98739 4.492231,-4.3248 1.548862,-1.33739 3.145246,-2.56711 4.783172,-3.68453 1.637783,-1.11745 3.315055,-2.12122 5.025533,-3.00757 1.710536,-0.88638 3.452141,-1.65422 5.218287,-2.30063 1.766183,-0.64638 3.554696,-1.17051 5.35884,-1.57045 1.80413,-0.39979 3.62162,-0.67488 5.44567,-0.82424 1.82407,-0.14955 3.65243,-0.17318 5.47821,-0.0708 1.82563,0.10249 3.6464,0.33084 5.45549,0.6842 1.80935,0.35314 3.60476,0.83088 5.37951,1.43143 1.7745,0.6008 3.52611,1.32362 5.24826,2.16576 1.20955,0.59139 2.40366,1.24119 3.58014,1.9482 1.67515,1.00665 3.31276,2.12823 4.90668,3.36052 1.59394,1.2323 3.14221,2.57377 4.639,4.0194 1.49693,1.44573 2.94051,2.99382 4.32531,4.63847 0.94891,1.16227 1.86828,2.36964 2.75642,3.61994 1.44838,-2.80423 2.70866,-5.76202 3.76721,-8.84133 10.15528,-30.041459 -0.52809,-64.989958 -23.86676,-78.075332 -5.23223,-2.933567 -10.84218,-4.591704 -16.54472,-4.89014 z"
       id="path6035"
       inkscape:connector-curvature="0"
       sodipodi:nodetypes="cccccccccccccccccccccccscc" />
    <path
       style="opacity:0.206;fill:#e9c6af;fill-opacity:1;stroke:#dedede;stroke-width:0.14988463;stroke-linejoin:round;stroke-miterlimit:4;stroke-dasharray:none;stroke-opacity:1"
       id="path6125"
       sodipodi:type="arc"
       sodipodi:cx="109.24996"
       sodipodi:cy="126.46494"
       sodipodi:rx="21.44932"
       sodipodi:ry="25.009991"
       sodipodi:start="3.5530366"
       sodipodi:end="3.5508026"
       d="m 89.59071,116.46262 a 21.44932,25.009991 0 0 1 28.22657,-12.92602 21.44932,25.009991 0 0 1 11.1015,32.90506 21.44932,25.009991 0 0 1 -28.21416,12.96277 21.44932,25.009991 0 0 1 -11.133025,-32.89058 l 19.678365,9.95109 z" />
    <path
       style="opacity:1;fill:url(#linearGradient6218);fill-opacity:1;stroke:#ffffff;stroke-width:0.3120718;stroke-linejoin:round;stroke-miterlimit:4;stroke-dasharray:none;stroke-opacity:0.54901961"
       id="path6190"
       sodipodi:type="arc"
       sodipodi:cx="93.733124"
       sodipodi:cy="67.297737"
       sodipodi:rx="13.401876"
       sodipodi:ry="14.17379"
       sodipodi:start="3.5530366"
       sodipodi:end="3.5508026"
       d="m 81.44971,61.629168 a 13.401876,14.17379 0 0 1 17.636408,-7.325501 13.401876,14.17379 0 0 1 6.936402,18.648125 13.401876,14.17379 0 0 1 -17.628663,7.346331 13.401876,14.17379 0 0 1 -6.95609,-18.639919 l 12.295357,5.639533 z" />
    <path
       style="opacity:1;fill:#ffffff;fill-opacity:1;stroke:#ffffff;stroke-width:0.26499999;stroke-linejoin:round;stroke-miterlimit:4;stroke-dasharray:none;stroke-opacity:0.54901961"
       id="path6194"
       sodipodi:type="arc"
       sodipodi:cx="94.683037"
       sodipodi:cy="200.0491"
       sodipodi:rx="13.418155"
       sodipodi:ry="10.016369"
       sodipodi:start="3.5530366"
       sodipodi:end="3.5508026"
       d="m 82.384704,196.04322 a 13.418155,10.016369 0 0 1 17.657826,-5.1768 13.418155,10.016369 0 0 1 6.94483,13.1783 13.418155,10.016369 0 0 1 -17.650075,5.19153 13.418155,10.016369 0 0 1 -6.964539,-13.17251 l 12.310291,3.98536 z" />
    <path
       style="opacity:1;fill:url(#linearGradient6204);fill-opacity:1;stroke:#ffffff;stroke-width:0.21434452;stroke-linejoin:round;stroke-miterlimit:4;stroke-dasharray:none;stroke-opacity:0.54901961"
       id="path6196"
       sodipodi:type="arc"
       sodipodi:cx="125.68934"
       sodipodi:cy="68.585899"
       sodipodi:rx="12.576668"
       sodipodi:ry="9.4941769"
       sodipodi:start="3.5530366"
       sodipodi:end="3.5508026"
       d="m 114.16227,64.788863 a 12.576668,9.4941769 0 0 1 16.55046,-4.906917 12.576668,9.4941769 0 0 1 6.50929,12.491267 12.576668,9.4941769 0 0 1 -16.54319,4.92087 12.576668,9.4941769 0 0 1 -6.52777,-12.485771 l 11.53828,3.777587 z" />
    <path
       style="opacity:1;fill:url(#linearGradient6238);fill-opacity:1;stroke:#ffffff;stroke-width:0.35889202;stroke-linejoin:round;stroke-miterlimit:4;stroke-dasharray:none;stroke-opacity:0.54901961"
       id="path6220"
       sodipodi:type="arc"
       sodipodi:cx="98.40065"
       sodipodi:cy="68.969757"
       sodipodi:rx="5.0925279"
       sodipodi:ry="4.1807547"
       sodipodi:start="3.5530366"
       sodipodi:end="3.5508026"
       d="m 93.733123,67.297735 a 5.0925279,4.1807547 0 0 1 6.701587,-2.160758 5.0925279,4.1807547 0 0 1 2.63574,5.500521 5.0925279,4.1807547 0 0 1 -6.698648,2.166902 5.0925279,4.1807547 0 0 1 -2.643218,-5.498101 l 4.672066,1.663458 z" />
    <path
       style="opacity:1;fill:url(#linearGradient6230);fill-opacity:1;stroke:#ffffff;stroke-width:0.26499999;stroke-linejoin:round;stroke-miterlimit:4;stroke-dasharray:none;stroke-opacity:0.54901961"
       id="path6222"
       sodipodi:type="arc"
       sodipodi:cx="125.68934"
       sodipodi:cy="68.585899"
       sodipodi:rx="3.2072344"
       sodipodi:ry="2.9399648"
       sodipodi:start="3.5530366"
       sodipodi:end="3.5508026"
       d="m 122.74977,67.41011 a 3.2072344,2.9399648 0 0 1 4.22061,-1.519475 3.2072344,2.9399648 0 0 1 1.65996,3.868043 3.2072344,2.9399648 0 0 1 -4.21875,1.523796 3.2072344,2.9399648 0 0 1 -1.66468,-3.866341 l 2.94243,1.169766 z" />
    <path
       id="path6291"
       transform="scale(0.26458333)"
       style="opacity:1;fill:none;fill-opacity:1;stroke:#ffffff;stroke-width:1.00157475;stroke-linejoin:round;stroke-miterlimit:4;stroke-dasharray:none;stroke-opacity:0.54901961"
       d="m -373.61523,346.26562 -43.9375,27.3125 12.39843,50.22657 25.5586,1.84765 c -0.73539,-1.31439 -1.4753,-2.62621 -2.21289,-3.93945 -3.06071,-5.44927 -0.68506,-9.25593 2.72656,-9.2168 2.04697,0.0235 4.46599,1.43202 6.30664,4.69922 1.47676,2.62126 2.94193,5.24932 4.43164,7.86328 0.27942,0.49029 0.56226,0.97855 0.8418,1.46875 l 13.94922,1.00782 19.49218,-47.92188 z"
       inkscape:connector-curvature="0" />
    <path
       style="opacity:1;fill:url(#linearGradient6459);fill-opacity:1;stroke:#ffffff;stroke-width:0.26499999;stroke-linejoin:round;stroke-miterlimit:4;stroke-dasharray:none;stroke-opacity:0.54901961"
       id="path6451"
       sodipodi:type="arc"
       sodipodi:cx="86.713043"
       sodipodi:cy="146.61362"
       sodipodi:rx="17.175047"
       sodipodi:ry="9.2158785"
       sodipodi:start="3.5530366"
       sodipodi:end="3.5508026"
       d="m 70.971352,142.92788 a 17.175047,9.2158785 0 0 1 22.60177,-4.76308 17.175047,9.2158785 0 0 1 8.889278,12.12512 17.175047,9.2158785 0 0 1 -22.591843,4.77662 17.175047,9.2158785 0 0 1 -8.914511,-12.11978 l 15.756997,3.66686 z" />
    <path
       style="display:inline;opacity:1;fill:url(#linearGradient6459-0);fill-opacity:1;stroke:#ffffff;stroke-width:0.27023324;stroke-linejoin:round;stroke-miterlimit:4;stroke-dasharray:none;stroke-opacity:0.54901961"
       id="path6451-5"
       sodipodi:type="arc"
       sodipodi:cx="129.56392"
       sodipodi:cy="147.15471"
       sodipodi:rx="17.175047"
       sodipodi:ry="9.5834675"
       sodipodi:start="3.5530366"
       sodipodi:end="3.5508026"
       d="m 113.82223,143.32196 a 17.175047,9.5834675 0 0 1 22.60177,-4.95306 17.175047,9.5834675 0 0 1 8.88927,12.60874 17.175047,9.5834675 0 0 1 -22.59184,4.96715 17.175047,9.5834675 0 0 1 -8.91451,-12.6032 l 15.757,3.81312 z" />
    <path
       style="fill:#cccccc;stroke:#000000;stroke-width:0.16438539px;stroke-linecap:butt;stroke-linejoin:miter;stroke-opacity:1"
       d="m 86.337097,42.672671 c 23.525743,3.256219 22.112243,12.16978 22.112243,12.16978 z"
       id="path134"
       inkscape:connector-curvature="0"
       sodipodi:nodetypes="ccc" />
    <path
       style="display:inline;fill:#cccccc;stroke:#000000;stroke-width:0.16438539px;stroke-linecap:butt;stroke-linejoin:miter;stroke-opacity:1"
       d="m 137.91827,52.115051 c -22.37499,1.931846 -25.24541,1.283709 -25.15549,2.062984 7.13418,-8.112688 15.99724,-3.337765 25.15549,-2.062984 z"
       id="path134-6"
       inkscape:connector-curvature="0"
       sodipodi:nodetypes="ccc" />
    <path
       sodipodi:type="star"
       style="opacity:1;fill:url(#linearGradient200);fill-opacity:1;stroke:#ffffff;stroke-width:0.26499999;stroke-linejoin:round;stroke-miterlimit:4;stroke-dasharray:none;stroke-opacity:0.54901961"
       id="path192"
       sodipodi:sides="3"
       sodipodi:cx="16.883945"
       sodipodi:cy="131.12263"
       sodipodi:r1="25.720818"
       sodipodi:r2="12.51797"
       sodipodi:arg1="1.065935"
       sodipodi:arg2="2.1596943"
       inkscape:flatsided="false"
       inkscape:rounded="0"
       inkscape:randomized="0"
       d="M 29.324747,153.63456 9.930902,141.53199 -8.832357,130.64072 l 20.178055,-10.74428 18.813749,-10.80382 -0.78421,22.84685 z"
       inkscape:transform-center-x="3.4629306"
       inkscape:transform-center-y="6.369511"
       transform="matrix(-0.61039538,0.34829751,-0.3588865,-0.5858022,166.78845,164.17752)" />
    <path
       style="fill:#000000;stroke:#000000;stroke-width:0.25043011px;stroke-linecap:butt;stroke-linejoin:miter;stroke-opacity:1"
       d="m 117.96925,33.198092 c -26.956998,-22.007365 1.2217,3.308414 -25.97606,7.413421 9.35271,-1.487364 12.20885,-3.815315 25.97606,-7.413421 z"
       id="path202"
       inkscape:connector-curvature="0"
       sodipodi:nodetypes="ccc" />
    <path
       style="fill:#000000;stroke:#000000;stroke-width:0.20855959px;stroke-linecap:butt;stroke-linejoin:miter;stroke-opacity:1"
       d="m 91.99319,40.611513 25.17781,0.3681 -23.104343,-21.16568 c 5.411823,7.78897 10.916673,17.77185 -2.073467,20.79758 z"
       id="path206"
       inkscape:connector-curvature="0"
       sodipodi:nodetypes="cccc" />
  </g>
</svg>
